<svg xmlns="http://www.w3.org/2000/svg" data-name="Your Icon" viewBox="0 0 81.61 69.6875" x="0px" y="0px">
    <title>handdrawn_arrow_07</title>
    <path fill="#eab308" d="M19.08,77.87a71.15,71.15,0,0,1-8.56-.51,1.5,1.5,0,0,1,.36-3A71.63,71.63,0,0,0,58,63.39,71.66,71.66,0,0,0,87,24.62a1.5,1.5,0,0,1,2.87.86A74.71,74.71,0,0,1,59.65,65.9,74.89,74.89,0,0,1,19.08,77.87Z" transform="translate(-9.2 -22.12)"/>
    <path fill="#eab308" d="M89.3,31.3h0a1.5,1.5,0,0,1-1.48-1.52c0-.92,0-1.84,0-2.76q-1.43,1.36-3,2.59a1.5,1.5,0,1,1-1.88-2.34,43.68,43.68,0,0,0,5-4.65,1.5,1.5,0,0,1,2.6.83,48.25,48.25,0,0,1,.33,6.38A1.5,1.5,0,0,1,89.3,31.3Z" transform="translate(-9.2 -22.12)"/>
</svg>