<svg xmlns="http://www.w3.org/2000/svg" data-name="Your Icon" viewBox="0 0 34.25 101.625" x="0px" y="0px">
    <title>handdrawn_arrow_04</title>
    <path fill="#d4d4d8" d="M57.5,88.68a1.5,1.5,0,0,1-1.32-2.2,40.13,40.13,0,0,0,4.64-17.31,17.6,17.6,0,0,0-.22-3.86q-.22.24-.47.47A6.64,6.64,0,0,1,54,67.14a4.74,4.74,0,0,1-3.4-3.24,4.82,4.82,0,0,1,.83-4.14,5.8,5.8,0,0,1,4.34-2.39,6.82,6.82,0,0,1,4.35,1.47c.09-.71.14-1.42.16-2.09C61,38.56,50,20.24,33.71,12.2A1.5,1.5,0,0,1,35,9.51c17.35,8.55,29,28,28.26,47.35a18.81,18.81,0,0,1-.74,4.91l0,.06a15.57,15.57,0,0,1,1.22,7.44,43.13,43.13,0,0,1-5,18.61A1.5,1.5,0,0,1,57.5,88.68ZM56,60.37h-.11a2.78,2.78,0,0,0-2,1.16,1.87,1.87,0,0,0-.37,1.56,1.8,1.8,0,0,0,1.34,1.17,3.63,3.63,0,0,0,3.25-.69,5.28,5.28,0,0,0,1.11-1.48A4.33,4.33,0,0,0,56,60.37Z" transform="translate(-32.88 -9.35)"/>
    <path fill="#d4d4d8" d="M57.26,90.65H57.1a1.5,1.5,0,0,1-1.26-1,24.94,24.94,0,0,1-1.26-7.34,1.5,1.5,0,1,1,3-.06,21.9,21.9,0,0,0,.29,3.16,33,33,0,0,1,6.8-7.23,1.5,1.5,0,1,1,1.92,2.31,30.82,30.82,0,0,0-8,9.45A1.5,1.5,0,0,1,57.26,90.65Z" transform="translate(-32.88 -9.35)"/>
</svg>